<svg width="93" height="34" viewBox="0 0 93 34" fill="none" xmlns="http://www.w3.org/2000/svg">
<path d="M16.7933 0.431968L28.7424 7.31981C29.7416 7.89581 30.3571 8.96024 30.3571 10.1121V23.8878C30.3571 25.0397 29.7416 26.1042 28.7424 26.6802L16.7933 33.568C15.7941 34.144 14.5631 34.144 13.5639 33.568L1.61469 26.6802C0.615514 26.1042 0 25.0397 0 23.8878V10.1121C0 8.96024 0.615514 7.89581 1.61469 7.31981L13.5639 0.431968C14.5631 -0.143989 15.7941 -0.143989 16.7933 0.431968Z" fill="url(#paint0_linear_1_1539)"/>
<path d="M4.00781 12.5794C4.00781 11.5858 4.70985 10.3776 5.57594 9.88081L18.4148 2.51588C19.2982 2.00914 20.0143 2.41993 20.0143 3.4334V17.9136C20.0143 18.9072 19.3122 20.1154 18.4462 20.6122L5.63866 27.9592C4.73795 28.4758 4.00781 28.057 4.00781 27.0237V12.5794Z" fill="url(#paint1_linear_1_1539)"/>
<path d="M9.14453 15.4436C9.14453 14.45 9.84657 13.2418 10.7127 12.745L23.5201 5.39806C24.4209 4.88139 25.151 5.30024 25.151 6.33357V21.0296C25.151 21.8841 24.5472 22.9232 23.8024 23.3504L10.744 30.8414C9.86062 31.3481 9.14453 30.9373 9.14453 29.9238V15.4436Z" fill="url(#paint2_linear_1_1539)"/>
<path d="M15.1797 18.381C15.1797 17.5401 15.7812 16.5176 16.5224 16.0988L29.9212 8.49219L29.9395 8.52406L29.9573 8.55594L29.9868 8.61058L30.0129 8.66143L30.038 8.71228C30.208 9.03103 30.3173 9.42795 30.3507 9.89013L30.3583 10.0175V24.2028C30.3583 25.0426 29.6449 26.1065 28.974 26.5373C23.5842 29.6485 17.5567 33.1292 17.5567 33.1292L17.2561 33.3021L16.819 33.5539C16.3053 33.8497 15.8035 33.9846 15.2708 33.9983L15.1797 33.9998V18.381Z" fill="url(#paint3_linear_1_1539)"/>
<path fill-rule="evenodd" clip-rule="evenodd" d="M41.7909 22.429C40.8783 22.429 40.0391 22.2832 39.2732 21.9898C38.9636 21.867 38.6707 21.7249 38.3943 21.5636C37.9866 21.3252 37.6151 21.0456 37.2793 20.7229C36.7162 20.1711 36.2769 19.5285 35.9613 18.796C35.646 18.0645 35.4883 17.2587 35.4883 16.3805C35.4883 16.1751 35.497 15.9744 35.5142 15.7773C35.5706 15.1301 35.7195 14.5259 35.9613 13.964C36.2769 13.2315 36.7162 12.5953 37.2793 12.0545C37.8539 11.5026 38.524 11.08 39.2901 10.7876C39.7304 10.6125 40.197 10.4878 40.6895 10.4136C41.0537 10.3586 41.432 10.3311 41.8246 10.3311C42.7597 10.3311 43.6157 10.4832 44.393 10.7876C45.1702 11.091 45.8293 11.5475 46.3699 12.1562L45.3223 13.2031C44.8379 12.7301 44.3085 12.3872 43.7339 12.1727C43.1708 11.9472 42.5568 11.8345 41.8922 11.8345C41.2164 11.8345 40.5855 11.9472 39.9997 12.1727C39.4253 12.3982 38.9239 12.7136 38.496 13.1188C38.0791 13.5249 37.7526 14.0089 37.5158 14.5718C37.3914 14.877 37.3015 15.197 37.2459 15.5334C37.2007 15.8057 37.178 16.088 37.178 16.3805C37.178 17.0222 37.2905 17.6244 37.5158 18.1882C37.7526 18.7401 38.0791 19.2241 38.496 19.6412C38.9239 20.0464 39.4253 20.3618 39.9997 20.5873C40.387 20.7394 40.797 20.8403 41.2301 20.8898C41.4398 20.9136 41.6548 20.9255 41.8753 20.9255C42.5062 20.9255 43.1087 20.8293 43.6833 20.6386C43.9603 20.5424 44.2273 20.4177 44.4842 20.2637C44.5388 20.2307 44.5929 20.1967 44.6465 20.1619V17.6006H42.1402V16.1925H46.2684V17.6006V20.9255C45.6828 21.4215 44.9955 21.7983 44.2072 22.0577C43.4298 22.3052 42.6245 22.429 41.7909 22.429ZM52.3156 22.3951C51.3581 22.3951 50.5133 22.198 49.7811 21.8037C49.0601 21.4095 48.4969 20.8688 48.0914 20.1816C47.6971 19.4945 47.5 18.706 47.5 17.8161C47.5 16.9262 47.6915 16.1376 48.0745 15.4505C48.4688 14.7634 49.0038 14.2283 49.6797 13.8453C50.3668 13.451 51.1385 13.2539 51.9946 13.2539C52.862 13.2539 53.6279 13.4454 54.2926 13.8284C54.9572 14.2114 55.4753 14.7521 55.8471 15.4505C56.2301 16.1376 56.4216 16.9431 56.4216 17.8668C56.4216 17.9343 56.4159 18.0132 56.4047 18.1033C56.4047 18.1934 56.399 18.2779 56.3878 18.3568H49.1161C49.1684 18.7735 49.2943 19.1565 49.4938 19.5058C49.7754 19.9676 50.1641 20.3281 50.6597 20.5872C51.1554 20.8462 51.7242 20.9758 52.3663 20.9758C52.8957 20.9758 53.3745 20.8857 53.8025 20.7054C54.2419 20.5252 54.6249 20.2549 54.9515 19.8944L55.8471 20.942C55.4415 21.4151 54.9346 21.7756 54.3263 22.0234C53.7293 22.2712 53.0591 22.3951 52.3156 22.3951ZM49.46 16.0757C49.2761 16.4102 49.1604 16.7819 49.113 17.1909H54.8694C54.8305 16.7779 54.7171 16.4005 54.5291 16.0588C54.2813 15.6082 53.9377 15.259 53.4984 15.0112C53.0703 14.7521 52.5691 14.6226 51.9946 14.6226C51.4313 14.6226 50.9301 14.7521 50.4908 15.0112C50.0514 15.259 49.7079 15.6138 49.46 16.0757ZM64.4424 13.6763C63.8905 13.3947 63.2484 13.2539 62.5162 13.2539C61.7051 13.2539 60.9955 13.4172 60.3872 13.7439C59.9333 13.9877 59.5672 14.3036 59.2889 14.6916V13.3384H57.7344V22.2938H59.3565V17.6809C59.3565 17.0275 59.4691 16.4812 59.6944 16.0419C59.931 15.6026 60.2633 15.2703 60.6913 15.045C61.1194 14.8197 61.6207 14.707 62.1952 14.707C62.9611 14.707 63.5525 14.9267 63.9693 15.366C64.3974 15.8053 64.6114 16.4587 64.6114 17.3261V22.2938H66.2335V17.1402C66.2335 16.2616 66.0758 15.535 65.7604 14.9605C65.445 14.386 65.0057 13.9579 64.4424 13.6763ZM72.2844 22.3951C71.3269 22.3951 70.482 22.198 69.7498 21.8037C69.0289 21.4095 68.4657 20.8688 68.0601 20.1816C67.6659 19.4945 67.4688 18.706 67.4688 17.8161C67.4688 16.9262 67.6602 16.1376 68.0432 15.4505C68.4375 14.7634 68.9726 14.2283 69.6484 13.8453C70.3356 13.451 71.1072 13.2539 71.9633 13.2539C72.8307 13.2539 73.5967 13.4454 74.2613 13.8284C74.9259 14.2114 75.4441 14.7521 75.8158 15.4505C76.1988 16.1376 76.3903 16.9431 76.3903 17.8668C76.3903 17.9343 76.3847 18.0132 76.3734 18.1033C76.3734 18.1934 76.3678 18.2779 76.3565 18.3568H69.0849C69.1371 18.7735 69.263 19.1565 69.4626 19.5058C69.7442 19.9676 70.1328 20.3281 70.6285 20.5872C71.1241 20.8462 71.693 20.9758 72.3351 20.9758C72.8645 20.9758 73.3432 20.8857 73.7713 20.7054C74.2106 20.5252 74.5936 20.2549 74.9203 19.8944L75.8158 20.942C75.4103 21.4151 74.9034 21.7756 74.2951 22.0234C73.6981 22.2712 73.0278 22.3951 72.2844 22.3951ZM69.4288 16.0757C69.2448 16.4102 69.1291 16.7819 69.0817 17.1909H74.8382C74.7993 16.7779 74.6858 16.4005 74.4979 16.0588C74.25 15.6082 73.9065 15.259 73.4672 15.0112C73.0391 14.7521 72.5378 14.6226 71.9633 14.6226C71.4001 14.6226 70.8988 14.7521 70.4595 15.0112C70.0202 15.259 69.6766 15.6138 69.4288 16.0757ZM77.707 13.3384V22.2938H79.3291V17.833C79.3291 16.8529 79.5826 16.1039 80.0895 15.5857C80.5964 15.0675 81.2835 14.8084 82.1509 14.8084H82.3199C82.3875 14.8084 82.4551 14.8141 82.5227 14.8253V13.2539C81.6665 13.2539 80.9456 13.4172 80.3598 13.7439C79.8807 14.0111 79.5146 14.3764 79.2615 14.8396V13.3384H77.707ZM84.0203 25.4539C84.4258 25.6004 84.8426 25.6736 85.2706 25.6736C85.7325 25.6736 86.1549 25.5948 86.5379 25.4371C86.9209 25.2906 87.2701 25.0372 87.5855 24.6767C87.9122 24.3162 88.2051 23.8206 88.4641 23.1898L92.8067 13.3389H91.2183L88.1237 20.4953L85.0003 13.3389H83.3106L87.2625 22.2715L86.9772 22.9025C86.7519 23.4207 86.5097 23.7812 86.2507 23.9839C85.9916 24.1867 85.6649 24.2881 85.2706 24.2881C84.9665 24.2881 84.6792 24.2317 84.4089 24.1191C84.1385 24.0064 83.8907 23.8431 83.6654 23.6291L82.9727 24.8457C83.2655 25.116 83.6147 25.3188 84.0203 25.4539Z" fill="white"/>
<defs>
<linearGradient id="paint0_linear_1_1539" x1="2.97863" y1="22.9469" x2="-5.70361" y2="15.7845" gradientUnits="userSpaceOnUse">
<stop stop-color="#667770"/>
<stop offset="1" stop-color="#92ACA1"/>
</linearGradient>
<linearGradient id="paint1_linear_1_1539" x1="7.77633" y1="8.20221" x2="18.2978" y2="15.0705" gradientUnits="userSpaceOnUse">
<stop stop-color="#92ACA1"/>
<stop offset="1" stop-color="#667770"/>
</linearGradient>
<linearGradient id="paint2_linear_1_1539" x1="12.913" y1="11.0801" x2="23.4345" y2="17.9484" gradientUnits="userSpaceOnUse">
<stop stop-color="#92ACA1"/>
<stop offset="1" stop-color="#667770"/>
</linearGradient>
<linearGradient id="paint3_linear_1_1539" x1="18.694" y1="14.3355" x2="30.1262" y2="26.3011" gradientUnits="userSpaceOnUse">
<stop stop-color="#A2BDB2"/>
<stop offset="1" stop-color="#667770"/>
</linearGradient>
</defs>
</svg>
